<?xml version="1.0" standalone="no"?>
<!DOCTYPE svg PUBLIC "-//W3C//DTD SVG 20010904//EN"
 "http://www.w3.org/TR/2001/REC-SVG-20010904/DTD/svg10.dtd">
<svg version="1.0" xmlns="http://www.w3.org/2000/svg"
 width="499.000000pt" height="163.000000pt" viewBox="0 0 499.000000 163.000000"
 preserveAspectRatio="xMidYMid meet"
 style="background: #ffffff; background-color: light-dark(#ffffff, var(--ge-dark-color, #121212)); color-scheme: light dark;"
 >
<g transform="translate(0.000000,163.000000) scale(0.100000,-0.100000)"
   style="fill: light-dark(var(--ge-dark-color, #121212), #ffffff); stroke: light-dark(var(--ge-dark-color, #121212), #ffffff);">
<path d="M412 1294 c-195 -52 -315 -229 -316 -464 0 -218 80 -367 239 -446 61
-30 87 -37 157 -41 180 -11 316 60 388 203 l19 39 1 -112 c0 -94 3 -113 15
-113 13 0 15 31 15 215 l0 215 -195 0 c-123 0 -195 -4 -195 -10 0 -6 67 -10
181 -10 l182 0 -6 -70 c-18 -221 -204 -361 -437 -329 -207 29 -340 208 -340
456 0 189 83 341 226 414 66 33 72 34 184 34 105 -1 119 -3 167 -28 29 -15 68
-41 87 -58 36 -31 96 -138 96 -171 0 -10 7 -18 16 -18 20 0 11 46 -22 112 -34
66 -74 110 -134 142 -101 55 -219 70 -328 40z"/>
<path d="M1640 1287 c0 -3 81 -211 179 -463 111 -283 185 -460 194 -462 8 -2
18 5 22 15 80 200 344 907 340 911 -3 3 -9 1 -14 -4 -5 -5 -82 -200 -171 -434
-89 -234 -165 -431 -170 -439 -5 -9 -42 73 -103 230 -53 134 -131 334 -175
443 -43 110 -83 201 -90 204 -7 2 -12 2 -12 -1z"/>
<path d="M3730 1135 l0 -104 -62 -3 c-35 -2 -63 -7 -63 -13 0 -5 28 -11 63
-13 l62 -3 0 -279 c0 -153 4 -290 10 -304 12 -33 59 -56 115 -56 33 0 45 4 45
15 0 11 -13 15 -53 15 -93 0 -91 -6 -95 326 l-3 284 75 0 c61 0 76 3 76 15 0
12 -15 15 -75 15 l-75 0 0 105 c0 63 -4 105 -10 105 -6 0 -10 -42 -10 -105z"/>
<path d="M1193 1014 c-62 -30 -107 -78 -142 -154 -23 -49 -26 -67 -26 -165 0
-100 3 -116 29 -173 33 -70 86 -124 153 -154 36 -16 61 -19 122 -16 88 4 138
25 191 78 102 102 127 308 55 449 -30 60 -110 133 -163 149 -68 20 -160 15
-219 -14z m117 -4 c0 -5 -9 -33 -20 -62 -11 -29 -20 -54 -20 -55 0 -2 9 -3 20
-3 19 0 20 -7 20 -115 0 -109 -2 -119 -30 -176 -25 -48 -35 -59 -49 -54 -14 4
-20 -1 -25 -26 -3 -17 -6 -47 -6 -66 l0 -35 49 44 c44 38 48 44 33 56 -15 11
-13 18 16 77 30 62 32 71 32 180 0 108 1 115 20 115 11 0 20 1 20 3 0 1 -9 26
-20 55 -11 29 -20 56 -20 61 0 15 77 -5 125 -33 163 -96 182 -413 32 -541 -42
-36 -117 -65 -169 -65 -94 0 -195 66 -238 154 -64 133 -37 333 57 417 49 44
63 52 111 65 59 16 62 16 62 4z"/>
<path d="M2525 1016 c-131 -60 -203 -226 -175 -401 15 -96 45 -159 96 -204 56
-49 113 -65 211 -59 139 8 226 80 257 211 11 46 -19 32 -31 -16 -26 -97 -108
-163 -219 -174 -158 -16 -273 85 -291 257 l-6 60 282 0 281 0 0 24 c0 46 -20
130 -42 174 -29 56 -104 125 -156 140 -65 20 -150 15 -207 -12z m219 -20 c80
-34 140 -124 152 -230 l7 -56 -268 0 -268 0 7 48 c8 65 63 169 108 205 67 54
178 68 262 33z"/>
<path d="M3185 1016 c-65 -30 -126 -98 -155 -172 -31 -77 -34 -223 -7 -301 24
-67 88 -140 152 -169 55 -26 151 -32 217 -14 81 23 155 107 173 198 5 24 3 32
-8 32 -9 0 -17 -14 -21 -39 -8 -52 -61 -120 -116 -151 -63 -35 -174 -36 -242
-1 -59 30 -79 51 -115 121 -26 51 -28 64 -28 165 0 105 2 114 33 177 47 97
102 135 219 153 96 15 207 -51 238 -141 17 -50 41 -60 31 -13 -14 69 -82 143
-155 168 -57 19 -160 13 -216 -13z"/>
<path d="M4133 1014 c-62 -30 -107 -78 -142 -154 -23 -49 -26 -67 -26 -165 0
-100 3 -116 29 -173 33 -70 86 -124 153 -154 36 -16 61 -19 122 -16 88 4 138
25 191 78 102 102 127 308 55 449 -30 60 -110 133 -163 149 -68 20 -160 15
-219 -14z m252 -33 c172 -95 197 -414 42 -546 -42 -36 -117 -65 -169 -65 -94
0 -195 66 -238 154 -64 133 -37 333 57 417 49 44 63 52 111 65 63 18 136 8
197 -25z"/>
<path d="M4063 763 c42 -42 49 -46 58 -31 9 16 15 15 74 -14 62 -31 65 -34 96
-106 27 -61 30 -75 18 -82 -11 -7 -5 -19 30 -54 25 -25 47 -44 49 -41 2 2 1
31 -3 65 -6 51 -10 60 -24 55 -14 -4 -25 11 -55 73 -36 79 -37 79 -102 107
-49 21 -64 32 -59 43 8 23 -13 32 -75 32 l-55 0 48 -47z"/>
<path d="M4847 1026 c-55 -20 -102 -60 -126 -108 l-21 -43 0 78 c0 62 -3 77
-15 77 -13 0 -15 -44 -15 -335 0 -291 2 -335 15 -335 13 0 15 31 15 219 0 175
3 229 16 269 31 94 103 155 199 169 25 3 45 10 45 14 0 13 -70 10 -113 -5z"/>
<path d="M3412 896 c-46 -28 -51 -34 -38 -45 14 -11 8 -23 -45 -87 l-61 -74
32 -57 c29 -51 31 -58 16 -69 -15 -10 -11 -16 31 -52 26 -23 49 -39 51 -37 2
2 1 31 -3 64 -6 56 -9 60 -28 56 -18 -5 -27 3 -48 44 l-26 50 54 65 c57 69 62
73 79 56 7 -7 17 12 31 55 12 36 18 65 15 65 -4 0 -31 -15 -60 -34z"/>
</g>
</svg>
